<svg width="209" height="180" xmlns="http://www.w3.org/2000/svg" xmlns:xlink="http://www.w3.org/1999/xlink" overflow="hidden"><defs><clipPath id="clip0"><rect x="0" y="0" width="209" height="180"/></clipPath></defs><g clip-path="url(#clip0)"><path d="M26.7581 22.2519C26.7581 22.2519 29.501 28.7666 23.3289 31.8531 17.1568 34.9397 39.7875 40.7681 42.1878 33.2246 42.1878 33.2246 36.0157 30.8273 38.7586 23.6233Z" fill="#FFB9B9"/><path d="M34.1298 156.836 33.7872 164.037 39.6167 165.066 39.6167 157.868Z" fill="#FFB9B9"/><path d="M12.1854 156.836 12.528 164.037 6.6985 165.066 6.6985 157.868Z" fill="#FFB9B9"/><path d="M43.0458 16.5942C43.0458 21.8968 38.7472 26.1954 33.4446 26.1954 28.1419 26.1954 23.8433 21.8968 23.8433 16.5942 23.8433 11.2916 28.1419 6.99294 33.4446 6.99294 38.7472 6.99294 43.0458 11.2916 43.0458 16.5942Z" fill="#FFB9B9"/><path d="M46.8176 86.2012 46.474 88.9442 48.189 95.4589 50.5864 89.6294Z" fill="#FFB9B9"/><path d="M8.7562 87.2291 6.69849 111.574C6.69849 111.574 4.30118 116.031 5.66965 119.804 5.66965 119.804 3.61195 124.947 4.29817 126.661 4.98442 128.375 5.32703 130.09 4.64079 130.775 3.95456 131.461 3.61195 150.663 4.64079 152.377 5.66965 154.091 6.35487 158.207 6.35487 158.207 6.35487 158.207 12.1844 159.578 13.5558 155.809 14.9273 152.041 14.2421 151.695 15.6135 150.666 16.985 149.637 16.985 135.236 16.985 135.236 16.985 135.236 15.2709 133.522 16.2998 132.839 17.3286 132.156 18.0138 132.839 16.985 131.125 15.9561 129.411 14.2421 129.411 15.9561 128.728 16.9114 128.357 17.8298 127.898 18.6991 127.356L28.6429 101.296C28.6429 101.296 32.4147 130.442 33.1009 131.813 33.7872 133.185 34.815 131.471 33.7872 133.185 32.7593 134.899 32.4157 133.871 32.7583 134.899 33.1009 135.927 30.7006 150.672 32.0721 153.758 32.8727 155.541 33.56 157.373 34.1298 159.243 34.1298 159.243 39.6156 161.641 40.3019 159.93 40.9881 158.219 40.6445 155.129 41.6733 154.786 42.7022 154.444 43.731 153.758 43.731 151.015 43.731 148.272 45.7887 134.899 45.7887 134.899 45.7887 134.899 43.3914 133.87 44.0747 132.156 44.7579 130.442 44.7609 130.784 44.4173 129.413 44.0737 128.041 43.3884 127.699 44.0747 126.67 44.7609 125.641 44.7609 122.556 44.7609 122.556L48.8753 95.4669 45.6978 86.2093Z" fill="#2F2E41"/><path d="M34.4734 162.322C34.4734 162.322 33.4446 161.293 33.1019 162.322 32.7593 163.351 32.7593 172.952 32.7593 172.952 32.7593 172.952 35.5023 175.01 35.5023 176.038 35.5023 177.065 37.56 180.496 42.3606 179.809L42.5034 179.787C44.978 179.387 46.6591 177.056 46.2582 174.581 46.1898 174.159 46.062 173.748 45.8786 173.362L40.9891 163.007C40.9891 163.007 37.56 159.579 34.4734 162.322Z" fill="#2F2E41"/><path d="M11.8417 162.322C11.8417 162.322 12.8706 161.293 13.2132 162.322 13.5558 163.351 13.5558 172.952 13.5558 172.952 13.5558 172.952 10.8129 175.01 10.8129 176.038 10.8129 177.065 8.7552 180.496 3.95457 179.809L3.81172 179.787C1.33678 179.386-0.344009 177.054 0.0576172 174.579 0.126022 174.157 0.253586 173.748 0.436508 173.362L5.32603 163.007C5.32603 163.007 8.7562 159.579 11.8417 162.322Z" fill="#2F2E41"/><path d="M26.1267 6.19482 24.4117 5.50861C24.4117 5.50861 27.9987 1.56001 32.989 1.90363L31.5856 0.358368C31.5856 0.358368 35.0168-1.01511 38.1353 2.58986 39.998 4.57951 41.5851 6.8103 42.854 9.22243L44.691 9.22243 43.9248 10.9105 46.6078 12.5987 43.8539 12.299C44.1147 13.7564 44.0254 15.255 43.5932 16.6711L43.6671 18.0056C43.6671 18.0056 40.4707 13.0661 40.4707 12.3789L40.4707 14.096C40.4707 14.096 38.7556 12.5507 38.7556 11.5209L37.8196 12.7195 37.3522 10.8306 31.5826 12.7195 32.5186 11.1743 28.9316 11.6897 30.3351 9.8008C30.3351 9.8008 26.2806 12.0323 26.1248 13.9212 25.9689 15.8101 23.9412 18.2164 23.9412 18.2164L23.0052 16.4993C23.0052 16.4993 21.6048 8.77094 26.1267 6.19482Z" fill="#2F2E41"/><path d="M48.188 37.8534 52.0088 37.8534C52.587 37.8528 53.0883 38.2533 53.2155 38.8173 53.8048 41.4274 55.3241 48.8271 55.0464 54.6546 54.7038 61.8555 55.389 66.9987 55.0464 68.0276 54.7038 69.0565 55.0464 69.3991 55.0464 70.4249 55.0464 71.4508 56.0752 70.7675 55.0464 72.139 54.0175 73.5105 54.0175 73.1678 54.0175 74.1967 54.0175 75.2256 50.5884 90.9979 50.5884 90.9979 50.5884 90.9979 48.231 87.1232 45.6379 87.8604L46.1304 73.8531 46.8166 68.0236 45.7878 57.7351Z" fill="#3F3D56"/><path d="M31.5567 34.2484C31.5567 34.2484 25.7272 34.0367 23.8413 31.5704 23.8413 31.5704 11.6689 35.6199 10.2975 39.048 8.92598 42.4762 15.0981 57.9069 15.0981 57.9069 15.0981 57.9069 4.468 89.4526 9.61223 89.4526 14.7565 89.4526 26.4134 93.567 33.2717 91.1667 37.521 89.6929 41.8769 88.5465 46.3012 87.7375 46.3012 87.7375 46.9864 78.4799 46.3012 76.7648 45.6159 75.0497 43.9038 76.0786 44.9297 73.6793 45.9556 71.28 45.6159 70.9363 45.2723 69.9075 44.9287 68.8786 45.9585 67.5102 45.9585 66.1357 45.9585 64.7613 45.6159 61.6777 45.6159 61.6777 45.6159 61.6777 54.8736 40.0759 52.8168 38.0182 50.7602 35.9605 40.2869 31.9969 40.2869 31.9969 40.2869 31.9969 37.3881 35.6249 31.5567 34.2484Z" fill="#3F3D56"/><path d="M4.64182 89.6294C4.64182 89.6294 1.55626 105.745 6.69951 104.374 11.8427 103.002 9.44244 89.6294 9.44244 89.6294Z" fill="#FFB9B9"/><path d="M12.529 37.8534 11.3113 38.4627C10.3502 38.9431 9.6693 39.8458 9.47139 40.9019L4.64281 66.6572C4.12659 67.7757 3.66881 68.9203 3.27133 70.0863 3.27133 70.4289 3.95757 70.4289 3.27133 71.4578 2.58511 72.4866 1.55725 72.143 2.24249 72.8292 2.63408 73.1849 2.87878 73.674 2.92871 74.2007L3.61496 91.0019C3.61496 91.0019 9.44443 89.2878 11.1585 91.0019 11.1585 91.0019 9.44443 85.8586 10.4723 84.1446 11.129 82.8712 11.4811 81.4627 11.5011 80.0302 11.5011 80.0302 10.8149 80.0302 12.53 78.3161 14.2451 76.602 14.5877 75.9188 14.244 75.5732 13.9004 75.2275 13.5578 72.144 13.5578 71.8014 13.5578 71.4587 16.986 48.4845 16.986 48.4845Z" fill="#3F3D56"/><path d="M83.9101 4.36488C82.8138 4.36598 81.9254 5.25441 81.9243 6.35068L81.9243 90.3107C81.9254 91.4069 82.8138 92.2953 83.91 92.2964L207.014 92.2964C208.111 92.2953 208.999 91.4069 209 90.3107L209 6.35265C208.999 5.25639 208.111 4.36798 207.014 4.36687Z" fill="#E6E6E6"/><path d="M86.7459 7.20171C85.6497 7.2028 84.7612 8.09123 84.7601 9.1875L84.7601 87.4748C84.7612 88.5711 85.6496 89.4595 86.7458 89.4606L204.177 89.4606C205.274 89.4595 206.162 88.5711 206.163 87.4748L206.163 9.18948C206.162 8.09322 205.274 7.2048 204.177 7.20369Z" fill="#FFFFFF"/><path d="M93.5223 72.4307 99.7323 67.8887 124.279 63.9931 139.362 60.0975 147.643 63.3738 158.88 47.4496 166.571 49.0718 178.103 36.422 184.017 38.3688 197.622 15.9849 197.622 72.3997Z" fill="#00CCF2" fill-opacity="0.2"/><path d="M94.2315 72.2898C93.9181 72.2898 93.6641 72.0358 93.6641 71.7225 93.6641 71.4091 93.9181 71.1551 94.2315 71.1551 120.445 71.1551 145.444 65.906 164.625 56.3717 182.609 47.4346 194.071 35.3162 196.068 23.1219 196.119 22.8127 196.411 22.6031 196.72 22.6539 197.029 22.7047 197.239 22.9964 197.188 23.3057 196.15 29.6396 192.782 35.8526 187.176 41.773 181.649 47.6115 174.23 52.8606 165.129 57.3875 145.796 66.9987 120.617 72.2898 94.2315 72.2898Z" fill="#00CCF2"/><path d="M201.907 72.4037 93.5553 72.4037 93.5553 18.8716 94.1226 18.8716 94.1226 71.8363 201.907 71.8363Z" fill="#E6E6E6"/></g></svg>