<svg width="212" height="168" xmlns="http://www.w3.org/2000/svg" xmlns:xlink="http://www.w3.org/1999/xlink" overflow="hidden"><defs><clipPath id="clip0"><rect x="0" y="0" width="212" height="168"/></clipPath></defs><g clip-path="url(#clip0)"><path d="M176.48 131.383 166.748 122.298 162.133 118.041C160.613 116.639 160.518 114.27 161.92 112.75 162.188 112.459 162.501 112.213 162.847 112.02L162.847 112.02C164.652 111.012 166.933 111.659 167.941 113.465 168.001 113.572 168.055 113.681 168.104 113.793L169.621 117.276 179.048 127.054Z" fill="#FFB9B9"/><path d="M177.754 125.493 174.337 131.186 188.206 139.696C200.436 130.904 202.858 128.043 199.861 114.038L197.478 111.655 185.958 130.348Z" fill="#FF007C"/><path d="M157.607 109.666C157.324 109.389 156.886 109.348 156.556 109.566L150.131 113.751C149.74 114.006 149.63 114.529 149.885 114.92 149.917 114.97 149.955 115.016 149.997 115.058L166.335 131.322C166.666 131.651 167.201 131.65 167.53 131.319 167.533 131.316 167.536 131.313 167.539 131.31L172.893 125.768C173.215 125.433 173.208 124.901 172.876 124.576Z" fill="#3F3D56"/><path d="M151.396 114.194 152.061 113.77C151.889 114.075 151.997 114.461 152.302 114.633 152.513 114.751 152.773 114.74 152.973 114.602L157.275 111.644C157.563 111.447 157.637 111.053 157.44 110.764 157.36 110.648 157.243 110.561 157.107 110.518L157.45 110.3C157.541 110.241 157.661 110.254 157.738 110.332L172.213 124.558C172.302 124.648 172.301 124.794 172.21 124.884 172.209 124.885 172.208 124.886 172.206 124.887L166.949 130.009C166.86 130.095 166.717 130.095 166.628 130.009L151.356 114.556C151.266 114.466 151.266 114.32 151.356 114.23 151.368 114.219 151.381 114.208 151.395 114.199Z" fill="#FFFFFF"/><path d="M168.101 121.416 163.661 125.606 153.1 115.172 158.46 111.68Z" fill="#FF007C"/><path d="M153.511 117.743C153.571 117.683 153.571 117.586 153.511 117.526 153.511 117.526 153.511 117.526 153.511 117.526L152.587 116.602C152.526 116.544 152.43 116.544 152.369 116.602 152.309 116.662 152.309 116.759 152.369 116.819 152.369 116.819 152.369 116.819 152.369 116.819L153.293 117.743C153.354 117.801 153.45 117.801 153.511 117.743Z" fill="#E6E6E6"/><path d="M155.067 119.081 154.143 118.157C154.083 118.097 153.986 118.097 153.926 118.157 153.866 118.217 153.866 118.315 153.926 118.375L154.85 119.299C154.91 119.359 155.007 119.359 155.067 119.299 155.127 119.239 155.127 119.141 155.067 119.081Z" fill="#E6E6E6"/><path d="M169.037 125.01C169.037 125.583 168.572 126.047 167.999 126.047 167.426 126.047 166.961 125.583 166.961 125.01 166.961 124.437 167.426 123.972 167.999 123.972 168.572 123.972 169.037 124.437 169.037 125.01Z" fill="#FF007C"/><path d="M211.899 161.678 131.46 161.678 131.46 161.12 212 161.12Z" fill="#3F3D56"/><path d="M202.7 161.314 202.7 80.875 203.258 80.875 203.258 161.415Z" fill="#3F3D56"/><path d="M101.347 158.927 96.0778 160.318 96.0778 160.318C94.5251 163.385 90.8723 164.738 87.6967 163.422L87.5819 163.374C86.8838 163.076 86.2325 162.679 85.6483 162.194 83.4353 160.398 79.7485 159.474 74.8586 159.257 74.242 159.063 73.8349 158.476 73.8688 157.831L73.8688 157.831C73.9049 157.149 74.4226 156.589 75.1 156.501L101.465 153.062Z" fill="#E6E6E6"/><path d="M169.703 163.597C155.918 161.386 143.362 157.81 132.831 151.968L100.15 159.989 100.269 152.822 125.812 143.862C130.121 142.351 134.702 141.766 139.253 142.145L169.699 147.794Z" fill="#2F2E41"/><path d="M117.145 166.472 117.145 166.472C116.932 165.761 117.212 164.994 117.834 164.588L130.193 158.09 133.186 150.308 138.334 153.541 136.897 159.287 137.236 161.664C137.647 164.539 135.649 167.202 132.774 167.613 132.528 167.648 132.28 167.666 132.031 167.666L118.755 167.666C118.014 167.665 117.361 167.178 117.149 166.468Z" fill="#E6E6E6"/><path d="M186.343 159.168C171.417 177.726 161.148 157.513 151.027 136.063L138.817 155.935 131.394 150.669 144.193 122.512C145.294 120.089 148.152 119.017 150.575 120.119 151.046 120.333 151.478 120.621 151.857 120.972L169.703 140.853 173.055 140.614Z" fill="#2F2E41"/><path d="M196.04 97.2751C196.04 102.168 192.074 106.134 187.181 106.134 182.288 106.134 178.322 102.168 178.322 97.2751 178.322 92.3824 182.288 88.4161 187.181 88.4161 192.074 88.4161 196.04 92.3824 196.04 97.2751Z" fill="#FFB9B9"/><path d="M198.435 113.078 188.618 115.233C187.675 111.191 186.311 107.258 184.548 103.501L193.646 100.149C194.764 104.621 196.37 108.956 198.435 113.078Z" fill="#FFB9B9"/><path d="M187.181 161.442 169.702 140.851 176.819 129.021C177.576 123.879 180.359 119.254 184.547 116.177L187.42 111.401 196.04 107.809 196.04 107.809C202.261 112.758 204.404 121.256 201.272 128.563Z" fill="#FF007C"/><path d="M172.097 138.696 161.562 130.555 156.573 126.747C154.929 125.492 154.614 123.142 155.869 121.498 156.109 121.184 156.398 120.91 156.723 120.685L156.723 120.685C158.428 119.514 160.759 119.946 161.93 121.65 162 121.751 162.064 121.855 162.123 121.963L163.958 125.289 174.254 134.148Z" fill="#FFB9B9"/><path d="M172.816 132.71 169.943 138.697 184.548 145.881C195.908 135.99 202.242 126.504 197.956 112.84L192.446 114.275 181.433 136.781Z" fill="#FF007C"/><path d="M202.209 83.538C202.209 85.486 200.63 87.0651 198.682 87.0651 196.734 87.0651 195.155 85.486 195.155 83.538 195.155 81.5901 196.734 80.011 198.682 80.011 200.63 80.011 202.209 81.5901 202.209 83.538Z" fill="#2F2E41"/><path d="M195.046 82.676C195.168 80.8202 196.711 79.3788 198.571 79.3834 198.498 79.3744 198.427 79.3624 198.352 79.3584 196.408 79.2333 194.73 80.7079 194.605 82.652 194.48 84.5961 195.955 86.2735 197.899 86.3986 197.973 86.3986 198.046 86.3986 198.119 86.3986 196.272 86.1642 194.927 84.5338 195.046 82.676Z" fill="#2F2E41"/><path d="M195.028 84.1816C191.882 81.5724 182.856 84.889 182.278 86.643 178.024 87.2227 174.804 89.7041 174.804 94.1172L174.804 94.1172C177.333 95.1529 180.208 95.0252 183.319 94.1172 188.275 98.1561 188.615 103.234 185.6 109.066L189.309 109.139 193.906 102.422 194.125 109.236 202.625 109.066 202.625 99.3006C202.653 96.0536 201.905 92.8469 200.445 89.9466 199.12 87.3734 197.065 85.8718 195.028 84.1816Z" fill="#2F2E41"/><path d="M188.797 99.0741C188.797 100.378 188.042 101.436 187.111 101.436 186.18 101.436 185.425 100.378 185.425 99.0741 185.425 97.7698 186.18 96.7124 187.111 96.7124 188.042 96.7124 188.797 97.7698 188.797 99.0741Z" fill="#FFB8B8"/><path d="M1.85284 0.333237C0.829468 0.334335 0.000106812 1.16368-0.000991821 2.18707L-0.000991821 80.5777C0.000106812 81.6011 0.829453 82.4304 1.85284 82.4315L116.794 82.4315C117.818 82.4304 118.647 81.6011 118.648 80.5777L118.648 2.18707C118.647 1.1637 117.818 0.334335 116.794 0.333237Z" fill="#E6E6E6"/><path d="M4.50087 2.98228C3.47749 2.98338 2.64815 3.81273 2.64705 4.83612L2.64705 77.9287C2.64815 78.952 3.47748 79.7814 4.50087 79.7825L114.141 79.7825C115.165 79.7814 115.994 78.9521 115.995 77.9287L115.995 4.83612C115.994 3.81274 115.165 2.98338 114.141 2.98228Z" fill="#FFFFFF"/><path d="M25.327 51.7266 25.8568 51.7266 25.8568 53.316 25.327 53.316Z" fill="#E6E6E6"/><path d="M25.327 56.2115 25.8568 56.2115 25.8568 59.107 25.327 59.107Z" fill="#E6E6E6"/><path d="M25.327 62.0025 25.8568 62.0025 25.8568 63.5919 25.327 63.5919Z" fill="#E6E6E6"/><path d="M76.9698 29.4647 77.4996 29.4647 77.4996 31.0541 76.9698 31.0541Z" fill="#E6E6E6"/><path d="M77.4996 57.8578 76.9698 57.8578 76.9698 54.5074 77.4996 54.5074ZM77.4996 51.1569 76.9698 51.1569 76.9698 47.8064 77.4996 47.8064ZM77.4996 44.456 76.9698 44.456 76.9698 41.1055 77.4996 41.1055ZM77.4996 37.7551 76.9698 37.7551 76.9698 34.4046 77.4996 34.4046Z" fill="#E6E6E6"/><path d="M76.9698 61.2083 77.4996 61.2083 77.4996 62.7977 76.9698 62.7977Z" fill="#E6E6E6"/><path d="M106.895 14.6341 107.425 14.6341 107.425 16.2235 106.895 16.2235Z" fill="#E6E6E6"/><path d="M107.425 58.21 106.896 58.21 106.896 55.2108 107.425 55.2108ZM107.425 52.2125 106.896 52.2125 106.896 49.2133 107.425 49.2133ZM107.425 46.215 106.896 46.215 106.896 43.2158 107.425 43.2158ZM107.425 40.2175 106.896 40.2175 106.896 37.2183 107.425 37.2183ZM107.425 34.219 106.896 34.219 106.896 31.2198 107.425 31.2198ZM107.425 28.2215 106.896 28.2215 106.896 25.2203 107.425 25.2203ZM107.425 22.224 106.896 22.224 106.896 19.2238 107.425 19.2238Z" fill="#E6E6E6"/><path d="M106.895 61.2083 107.425 61.2083 107.425 62.7977 106.895 62.7977Z" fill="#E6E6E6"/><path d="M16.6805 63.4812C15.4063 59.6618 17.799 55.7206 20.9967 53.7032 25.0666 51.134 30.236 51.8982 34.5174 53.4916 42.9474 56.6276 50.4994 63.9601 60.1287 62.232 62.04 61.9138 63.8484 61.1461 65.4048 59.992 67.02 58.7241 68.2497 57.0311 68.9558 55.103 70.4854 51.119 70.1202 46.7728 70.3577 42.5981 70.5782 38.7309 71.3465 34.3327 74.5243 31.7426 78.0055 28.905 82.9394 29.4557 87.126 29.1814 91.1547 28.9346 95.0505 27.6468 98.4325 25.4438 101.803 23.2544 104.56 20.2431 106.444 16.6934 106.889 15.8402 107.278 14.9594 107.61 14.0564 107.787 13.5764 107.02 13.3689 106.844 13.8448 103.874 21.5979 96.9174 27.1177 88.6924 28.2465 84.439 28.7663 79.8354 28.0469 75.8543 29.9686 72.1068 31.7785 70.4435 35.7007 69.8588 39.6119 69.2312 43.8124 69.7531 48.1078 68.9229 52.2834 68.5728 54.3933 67.6786 56.3755 66.3287 58.0344 64.9903 59.5302 63.2482 60.6074 61.312 61.1364 51.8683 63.8663 43.8034 56.4011 35.6408 53.0806 31.3924 51.3524 26.3078 50.3318 21.9506 52.2824 18.5582 53.8029 15.6727 57.2143 15.5231 61.0377 15.4901 61.9383 15.6203 62.8374 15.9072 63.6917 16.0678 64.1746 16.8361 63.9671 16.6735 63.4802Z" fill="#FF007C"/><path d="" stroke="#FFFFFF" stroke-width="1.99551" stroke-miterlimit="10" stroke-dasharray="11.9731 11.9731" fill="none"/><path d="M112.023 63.8563 10.8576 63.8563 10.8576 13.8758 11.3874 13.8758 11.3874 63.3285 112.023 63.3285Z" fill="#3F3D56"/></g></svg>